<mxfile host="app.diagrams.net" modified="2022-08-26T15:18:41.509Z" agent="5.0 (Windows NT 10.0; Win64; x64) AppleWebKit/537.36 (KHTML, like Gecko) Chrome/103.0.5060.134 Safari/537.36 Edg/103.0.1264.77" etag="AREKPcVfkjtETWxGRHBA" version="20.2.7" type="github">
  <diagram id="1FMob5ikciNaPZrp9ZdB" name="Pagina-1">
    <mxGraphModel dx="1422" dy="762" grid="0" gridSize="10" guides="1" tooltips="1" connect="1" arrows="1" fold="1" page="1" pageScale="1" pageWidth="1169" pageHeight="827" math="0" shadow="0">
      <root>
        <mxCell id="0" />
        <mxCell id="1" parent="0" />
        <mxCell id="d-gC61zfaKFtVP-OxEj3-9" value="Geen toegang tot&#xa;het netwerk" style="rounded=1;arcSize=10;dashed=0;fillColor=none;gradientColor=none;strokeWidth=2;fontSize=13;fontStyle=1" parent="1" vertex="1">
          <mxGeometry x="276" y="130" width="200" height="117" as="geometry" />
        </mxCell>
        <mxCell id="d-gC61zfaKFtVP-OxEj3-10" value="&lt;font color=&quot;#ffffff&quot;&gt;&lt;span style=&quot;font-size: 15px;&quot;&gt;&lt;b&gt;Quarantine&lt;/b&gt;&lt;/span&gt;&lt;/font&gt;" style="dashed=0;html=1;shape=mxgraph.aws3.instance;fillColor=#F58536;gradientColor=none;dashed=0;" parent="1" vertex="1">
          <mxGeometry x="287" y="109" width="120" height="41" as="geometry" />
        </mxCell>
        <mxCell id="d-gC61zfaKFtVP-OxEj3-15" value="" style="group" parent="1" vertex="1" connectable="0">
          <mxGeometry x="145" y="158.5" width="131" height="60" as="geometry" />
        </mxCell>
        <mxCell id="d-gC61zfaKFtVP-OxEj3-14" value="" style="html=1;shadow=0;dashed=1;align=center;verticalAlign=middle;shape=mxgraph.arrows2.arrow;dy=0;dx=30;notch=30;fontSize=13;fontColor=#FFFFFF;strokeColor=#3030FF;strokeWidth=2;" parent="d-gC61zfaKFtVP-OxEj3-15" vertex="1">
          <mxGeometry width="131" height="60" as="geometry" />
        </mxCell>
        <mxCell id="d-gC61zfaKFtVP-OxEj3-12" value="" style="shape=image;html=1;verticalAlign=top;verticalLabelPosition=bottom;labelBackgroundColor=#ffffff;imageAspect=0;aspect=fixed;image=https://cdn1.iconfinder.com/data/icons/unicons-line-vol-5/24/shield-question-128.png;fontSize=13;fontColor=#FFFFFF;" parent="d-gC61zfaKFtVP-OxEj3-15" vertex="1">
          <mxGeometry x="34.53636363636364" width="60" height="60" as="geometry" />
        </mxCell>
        <mxCell id="d-gC61zfaKFtVP-OxEj3-16" value="&lt;font color=&quot;#000000&quot;&gt;&lt;b&gt;802.1x (EAP)&lt;br&gt;authentication request&lt;/b&gt;&lt;/font&gt;" style="text;html=1;resizable=0;autosize=1;align=center;verticalAlign=middle;points=[];fillColor=none;strokeColor=none;rounded=0;dashed=1;fontSize=13;fontColor=#FFFFFF;" parent="1" vertex="1">
          <mxGeometry x="117" y="218.5" width="157" height="43" as="geometry" />
        </mxCell>
        <mxCell id="d-gC61zfaKFtVP-OxEj3-19" value="" style="group" parent="1" vertex="1" connectable="0">
          <mxGeometry x="665" y="111" width="200" height="136" as="geometry" />
        </mxCell>
        <mxCell id="d-gC61zfaKFtVP-OxEj3-17" value="Role-based access toegang&#xa;naar KVK netwerk" style="rounded=1;arcSize=10;dashed=0;fillColor=none;gradientColor=none;strokeWidth=2;fontSize=13;fontStyle=1" parent="d-gC61zfaKFtVP-OxEj3-19" vertex="1">
          <mxGeometry y="19" width="200" height="117" as="geometry" />
        </mxCell>
        <mxCell id="d-gC61zfaKFtVP-OxEj3-18" value="&lt;font color=&quot;#ffffff&quot;&gt;&lt;span style=&quot;font-size: 15px;&quot;&gt;&lt;b&gt;KVK-medewerkers&lt;/b&gt;&lt;/span&gt;&lt;/font&gt;" style="dashed=0;html=1;shape=mxgraph.aws3.instance;fillColor=#1BF564;gradientColor=none;dashed=0;" parent="d-gC61zfaKFtVP-OxEj3-19" vertex="1">
          <mxGeometry x="4" width="154" height="41" as="geometry" />
        </mxCell>
        <mxCell id="d-gC61zfaKFtVP-OxEj3-20" value="" style="group" parent="1" vertex="1" connectable="0">
          <mxGeometry x="665" y="294" width="200" height="136" as="geometry" />
        </mxCell>
        <mxCell id="d-gC61zfaKFtVP-OxEj3-21" value="Role-based access toegang&#xa;naar KVK netwerk" style="rounded=1;arcSize=10;dashed=0;fillColor=none;gradientColor=none;strokeWidth=2;fontSize=13;fontStyle=1" parent="d-gC61zfaKFtVP-OxEj3-20" vertex="1">
          <mxGeometry y="19" width="200" height="117" as="geometry" />
        </mxCell>
        <mxCell id="d-gC61zfaKFtVP-OxEj3-22" value="&lt;font color=&quot;#ffffff&quot;&gt;&lt;span style=&quot;font-size: 15px;&quot;&gt;&lt;b&gt;Secondaire -&lt;br&gt;KVK managed&lt;br&gt;&lt;/b&gt;&lt;/span&gt;&lt;/font&gt;" style="dashed=0;html=1;shape=mxgraph.aws3.instance;fillColor=#7125F5;gradientColor=none;dashed=0;" parent="d-gC61zfaKFtVP-OxEj3-20" vertex="1">
          <mxGeometry x="4" width="154" height="41" as="geometry" />
        </mxCell>
        <mxCell id="d-gC61zfaKFtVP-OxEj3-23" value="" style="group" parent="1" vertex="1" connectable="0">
          <mxGeometry x="665" y="636" width="200" height="136" as="geometry" />
        </mxCell>
        <mxCell id="d-gC61zfaKFtVP-OxEj3-24" value="Internet only" style="rounded=1;arcSize=10;dashed=0;fillColor=none;gradientColor=none;strokeWidth=2;fontSize=13;fontStyle=1" parent="d-gC61zfaKFtVP-OxEj3-23" vertex="1">
          <mxGeometry y="19" width="200" height="117" as="geometry" />
        </mxCell>
        <mxCell id="d-gC61zfaKFtVP-OxEj3-25" value="&lt;font color=&quot;#ffffff&quot;&gt;&lt;span style=&quot;font-size: 15px;&quot;&gt;&lt;b&gt;Gast&lt;/b&gt;&lt;/span&gt;&lt;/font&gt;" style="dashed=0;html=1;shape=mxgraph.aws3.instance;fillColor=#B0416D;gradientColor=none;dashed=0;" parent="d-gC61zfaKFtVP-OxEj3-23" vertex="1">
          <mxGeometry x="4" width="154" height="41" as="geometry" />
        </mxCell>
        <mxCell id="d-gC61zfaKFtVP-OxEj3-28" value="" style="shape=image;html=1;verticalAlign=top;verticalLabelPosition=bottom;labelBackgroundColor=#ffffff;imageAspect=0;aspect=fixed;image=https://cdn3.iconfinder.com/data/icons/summertime-6/512/direction-128.png;dashed=1;fontSize=13;fontColor=#000000;strokeColor=#3030FF;strokeWidth=2;fillColor=#B0416D;" parent="1" vertex="1">
          <mxGeometry x="395" y="48" width="101" height="101" as="geometry" />
        </mxCell>
        <mxCell id="BnHAYOsMMcYcS3M3SQaV-1" value="" style="group" vertex="1" connectable="0" parent="1">
          <mxGeometry x="667" y="463" width="200" height="136" as="geometry" />
        </mxCell>
        <mxCell id="BnHAYOsMMcYcS3M3SQaV-2" value="Geïsoleerd segment met &#xa;mogelijk internet toegang" style="rounded=1;arcSize=10;dashed=0;fillColor=none;gradientColor=none;strokeWidth=2;fontSize=13;fontStyle=1" vertex="1" parent="BnHAYOsMMcYcS3M3SQaV-1">
          <mxGeometry y="19" width="200" height="117" as="geometry" />
        </mxCell>
        <mxCell id="BnHAYOsMMcYcS3M3SQaV-3" value="&lt;font color=&quot;#ffffff&quot;&gt;&lt;span style=&quot;font-size: 15px;&quot;&gt;&lt;b&gt;Secondaire devices&lt;br&gt;&lt;/b&gt;&lt;/span&gt;&lt;/font&gt;" style="dashed=0;html=1;shape=mxgraph.aws3.instance;fillColor=#CCCC00;gradientColor=none;dashed=0;" vertex="1" parent="BnHAYOsMMcYcS3M3SQaV-1">
          <mxGeometry x="4" width="154" height="41" as="geometry" />
        </mxCell>
        <mxCell id="BnHAYOsMMcYcS3M3SQaV-8" value="" style="html=1;shadow=0;dashed=0;align=center;verticalAlign=middle;shape=mxgraph.arrows2.jumpInArrow;dy=15;dx=38;arrowHead=42.4;fillColor=#CCA06E;rotation=-45;direction=south;" vertex="1" parent="1">
          <mxGeometry x="530.33" y="123.83" width="100" height="224" as="geometry" />
        </mxCell>
        <mxCell id="BnHAYOsMMcYcS3M3SQaV-9" value="" style="html=1;shadow=0;dashed=0;align=center;verticalAlign=middle;shape=mxgraph.arrows2.jumpInArrow;dy=15;dx=38;arrowHead=42.4;fillColor=#CCA06E;rotation=-30;direction=south;" vertex="1" parent="1">
          <mxGeometry x="553.08" y="160.88" width="46.5" height="357.25" as="geometry" />
        </mxCell>
        <mxCell id="BnHAYOsMMcYcS3M3SQaV-11" value="" style="html=1;shadow=0;dashed=0;align=center;verticalAlign=middle;shape=mxgraph.arrows2.jumpInArrow;dy=15;dx=38;arrowHead=42.4;fillColor=#CCA06E;rotation=-25;direction=south;" vertex="1" parent="1">
          <mxGeometry x="540.1" y="218.54" width="46" height="482.63" as="geometry" />
        </mxCell>
        <mxCell id="BnHAYOsMMcYcS3M3SQaV-7" value="" style="html=1;shadow=0;dashed=0;align=center;verticalAlign=middle;shape=mxgraph.arrows2.jumpInArrow;dy=15;dx=38;arrowHead=42.4;fillColor=#CCA06E;rotation=30;" vertex="1" parent="1">
          <mxGeometry x="484" y="120" width="181" height="100" as="geometry" />
        </mxCell>
        <mxCell id="BnHAYOsMMcYcS3M3SQaV-13" value="" style="group" vertex="1" connectable="0" parent="1">
          <mxGeometry x="587" y="148" width="73.02999999999997" height="65" as="geometry" />
        </mxCell>
        <mxCell id="d-gC61zfaKFtVP-OxEj3-49" value="" style="points=[[0.005,0.09,0],[0.08,0,0],[0.76,0.25,0],[1,0.92,0],[0.91,0.995,0],[0.57,0.995,0],[0.045,0.955,0],[0.005,0.43,0]];verticalLabelPosition=bottom;sketch=0;html=1;verticalAlign=top;aspect=fixed;align=center;pointerEvents=1;shape=mxgraph.cisco19.3g_4g_indicator;fillColor=#005073;strokeColor=none;dashed=1;fontSize=13;fontColor=#000000;" parent="BnHAYOsMMcYcS3M3SQaV-13" vertex="1">
          <mxGeometry y="2.9230769230769234" width="10.96677437164553" height="10.96677437164553" as="geometry" />
        </mxCell>
        <mxCell id="d-gC61zfaKFtVP-OxEj3-52" value="" style="shape=image;html=1;verticalAlign=top;verticalLabelPosition=bottom;labelBackgroundColor=#ffffff;imageAspect=0;aspect=fixed;image=https://cdn1.iconfinder.com/data/icons/computer-hardware-glyphs-vol-1/52/cable__plug__tech__charging__usb__connector__device-128.png;dashed=1;sketch=0;fontSize=13;fontColor=#000000;strokeColor=#3030FF;strokeWidth=2;fillColor=#B0416D;" parent="BnHAYOsMMcYcS3M3SQaV-13" vertex="1">
          <mxGeometry x="12.601102362204722" width="16.139781150723614" height="16.139781150723614" as="geometry" />
        </mxCell>
        <mxCell id="BnHAYOsMMcYcS3M3SQaV-18" value="" style="group" vertex="1" connectable="0" parent="1">
          <mxGeometry x="593" y="219" width="73.02999999999997" height="65" as="geometry" />
        </mxCell>
        <mxCell id="BnHAYOsMMcYcS3M3SQaV-19" value="" style="points=[[0.005,0.09,0],[0.08,0,0],[0.76,0.25,0],[1,0.92,0],[0.91,0.995,0],[0.57,0.995,0],[0.045,0.955,0],[0.005,0.43,0]];verticalLabelPosition=bottom;sketch=0;html=1;verticalAlign=top;aspect=fixed;align=center;pointerEvents=1;shape=mxgraph.cisco19.3g_4g_indicator;fillColor=#005073;strokeColor=none;dashed=1;fontSize=13;fontColor=#000000;" vertex="1" parent="BnHAYOsMMcYcS3M3SQaV-18">
          <mxGeometry y="2.9230769230769234" width="10.96677437164553" height="10.96677437164553" as="geometry" />
        </mxCell>
        <mxCell id="BnHAYOsMMcYcS3M3SQaV-20" value="" style="shape=image;html=1;verticalAlign=top;verticalLabelPosition=bottom;labelBackgroundColor=#ffffff;imageAspect=0;aspect=fixed;image=https://cdn1.iconfinder.com/data/icons/computer-hardware-glyphs-vol-1/52/cable__plug__tech__charging__usb__connector__device-128.png;dashed=1;sketch=0;fontSize=13;fontColor=#000000;strokeColor=#3030FF;strokeWidth=2;fillColor=#B0416D;" vertex="1" parent="BnHAYOsMMcYcS3M3SQaV-18">
          <mxGeometry x="12.601102362204722" width="16.139781150723614" height="16.139781150723614" as="geometry" />
        </mxCell>
        <mxCell id="d-gC61zfaKFtVP-OxEj3-55" value="" style="points=[[0.005,0.09,0],[0.08,0,0],[0.76,0.25,0],[1,0.92,0],[0.91,0.995,0],[0.57,0.995,0],[0.045,0.955,0],[0.005,0.43,0]];verticalLabelPosition=bottom;sketch=0;html=1;verticalAlign=top;aspect=fixed;align=center;pointerEvents=1;shape=mxgraph.cisco19.3g_4g_indicator;fillColor=#005073;strokeColor=none;dashed=1;fontSize=13;fontColor=#000000;" parent="1" vertex="1">
          <mxGeometry x="585" y="515" width="18.33" height="18.33" as="geometry" />
        </mxCell>
        <mxCell id="BnHAYOsMMcYcS3M3SQaV-23" value="" style="shape=image;html=1;verticalAlign=top;verticalLabelPosition=bottom;labelBackgroundColor=#ffffff;imageAspect=0;aspect=fixed;image=https://cdn1.iconfinder.com/data/icons/computer-hardware-glyphs-vol-1/52/cable__plug__tech__charging__usb__connector__device-128.png;dashed=1;sketch=0;fontSize=13;fontColor=#000000;strokeColor=#3030FF;strokeWidth=2;fillColor=#B0416D;" vertex="1" parent="1">
          <mxGeometry x="592" y="370" width="24.74" height="24.74" as="geometry" />
        </mxCell>
      </root>
    </mxGraphModel>
  </diagram>
</mxfile>
